<svg width="615" height="615" viewBox="0 0 615 615" fill="none" xmlns="http://www.w3.org/2000/svg">
<g clip-path="url(#clip0_262_8)">
<path d="M614.4 307.2C614.4 137.538 476.862 0 307.2 0C137.538 0 0 137.538 0 307.2C0 476.862 137.538 614.4 307.2 614.4C476.862 614.4 614.4 476.862 614.4 307.2Z" fill="#00AAAC"/>
<path d="M305.513 482.419C305.513 485.357 307.872 487.7 310.779 487.7C313.701 487.7 316.06 485.356 316.06 482.419C316.06 479.513 313.701 477.138 310.779 477.138C307.872 477.138 305.513 479.513 305.513 482.419Z" fill="white"/>
<path d="M491.606 486.231C489.731 479.2 487.075 472.918 483.793 467.293C478.074 457.449 470.465 449.793 462.106 443.715C455.809 439.152 449.09 435.449 442.278 432.231C435.325 428.981 428.278 426.262 421.45 423.731C414.403 413.747 403.2 402.356 403.512 377.7C403.715 361.809 404.965 363.169 405.2 317.169C408.981 314.075 412.544 310.122 415.622 305.263C419.653 298.888 422.903 290.95 425.106 281.169C425.731 278.481 426.012 275.763 426.012 273.122C426.012 267.575 424.715 262.263 422.512 257.544C420.981 254.278 419.028 251.263 416.778 248.544C417.934 244.263 419.341 238.544 420.575 231.825C422.309 222.497 423.731 219.903 423.731 208.137C423.731 200.512 423.137 192.668 421.59 184.918C420.434 179.105 418.731 173.355 416.34 167.824C414.512 163.605 412.262 159.543 409.543 155.699L435.793 116.074C437.449 113.574 438.262 110.699 438.262 107.886C438.262 105.636 437.746 103.417 436.762 101.355C435.996 99.7919 434.918 98.324 433.59 97.058C432.543 95.62 430.527 93.199 427.121 90.089C422.183 85.605 414.277 79.667 402.027 73.136C391.308 67.417 378.136 61.933 362.371 57.886C346.607 53.825 328.263 51.2 307.232 51.2C284.591 51.2 265.06 54.231 248.513 58.825C231.966 63.419 218.419 69.575 207.685 75.763C197.06 81.904 190.31 87.169 186.091 91.107C183.263 93.763 181.575 95.826 180.638 97.107C179.341 98.357 178.31 99.826 177.56 101.388C176.607 103.388 176.122 105.576 176.122 107.794C176.122 110.607 176.935 113.482 178.606 115.982L208.106 160.529C204.262 167.263 200.95 174.748 198.559 183.045C195.95 192.154 194.418 202.233 194.418 213.233C194.418 220.108 195.012 218.733 196.293 226.327C196.293 226.858 196.309 227.358 196.34 227.858C196.403 228.827 196.496 229.796 196.606 230.827C196.762 232.343 196.95 233.905 197.075 235.202C197.153 235.858 197.216 236.452 197.247 236.921C197.263 237.14 197.278 237.327 197.278 237.452L197.294 237.64V237.671V238.546L199.138 246.796C196.482 249.702 194.154 252.984 192.357 256.577C189.873 261.546 188.373 267.202 188.388 273.14C188.372 275.765 188.669 278.484 189.294 281.187L189.278 281.171C190.762 287.702 192.684 293.39 195.012 298.359C198.496 305.797 202.887 311.609 207.778 315.984C208.231 316.375 208.684 316.765 209.153 317.14C209.387 363.171 210.653 361.796 210.841 377.703C211.154 402.391 199.935 413.766 192.888 423.734C189.841 424.89 186.747 426.047 183.638 427.297C175.904 430.391 168.06 433.891 160.591 438.297C154.997 441.594 149.607 445.422 144.653 449.953C137.216 456.747 130.81 465.2 126.388 475.7C121.95 486.2 119.482 498.622 119.497 513.294C119.481 515.357 119.935 517.341 120.638 519.153C121.31 520.856 122.216 522.45 123.31 523.919C125.341 526.7 127.966 529.169 131.201 531.575C136.857 535.731 144.389 539.638 154.123 543.325C168.701 548.825 188.264 553.763 213.545 557.356C238.826 560.949 269.825 563.2 307.2 563.2C339.591 563.2 367.2 561.512 390.434 558.731C407.872 556.637 422.856 553.918 435.575 550.825C445.122 548.481 453.388 545.95 460.481 543.231C465.794 541.231 470.45 539.137 474.512 536.981C477.543 535.356 480.246 533.684 482.621 531.981C486.184 529.418 489.043 526.731 491.215 523.731C492.293 522.231 493.199 520.606 493.856 518.887C494.512 517.137 494.903 515.231 494.903 513.293C494.903 503.263 493.747 494.278 491.606 486.231ZM193.091 108.106L193.2 108.028L193.888 106.825C194.091 106.528 195.357 104.809 198.576 101.981C201.92 99.0429 207.373 94.918 215.904 89.997C225.513 84.45 237.779 78.856 252.904 74.669C268.045 70.45 286.06 67.638 307.232 67.638C326.904 67.638 343.841 70.076 358.279 73.794C372.717 77.512 384.654 82.497 394.31 87.638C405.498 93.607 412.232 98.763 416.06 102.247C417.966 103.981 419.154 105.294 419.81 106.091C420.138 106.482 420.326 106.763 420.419 106.888L420.45 106.919L421.184 108.169L421.293 108.232L384.449 163.857H307.23H230.011L193.091 108.106ZM235.607 422.669C238.466 420.981 241.232 419.169 243.779 417.106C246.529 414.918 249.06 412.45 251.295 409.7L302.2 433.325L278.263 477.2L235.607 422.669ZM311.2 519.294L285.622 486.591L309.794 442.232L333.888 486.42L311.2 519.294ZM340.857 476.325L317.263 433.059L362.701 409.168C363.717 410.465 364.779 411.699 365.92 412.856C369.514 416.559 373.686 419.622 378.139 422.294L340.857 476.325ZM396.2 304.294C392.966 307.169 389.528 309.044 385.95 310.388L382.497 311.638L381.263 315.107C377.513 325.7 373.857 334.2 370.2 341.044C366.512 347.857 362.856 352.982 359.075 356.997L357.575 358.575L357.106 360.7C355.403 368.497 353.715 371.653 353.715 381.856C353.715 385.012 353.871 384.387 354.231 387.856C354.669 391.919 355.59 395.7 356.981 399.231C357.044 399.387 357.122 399.544 357.184 399.7L309.637 424.7L256.981 400.262C258.606 396.481 259.7 392.324 260.153 387.856C260.512 384.387 260.684 385.012 260.684 381.872C260.684 371.638 258.981 368.481 257.278 360.684L256.809 358.559L255.325 356.981C251.528 352.981 247.872 347.856 244.2 341.012C240.544 334.199 236.887 325.699 233.137 315.106L231.903 311.637L228.45 310.387C226.059 309.512 223.747 308.371 221.497 306.856C218.138 304.606 214.934 301.512 211.997 296.887C209.075 292.278 206.434 286.106 204.544 277.731C204.185 276.137 204.028 274.622 204.028 273.137C204.028 269.793 204.841 266.606 206.356 263.574C207.622 261.043 209.372 258.636 211.512 256.496C215.09 261.918 218.075 266.23 219.153 267.324C222.669 270.84 223.169 262.543 221.497 253.23C218.419 236.105 226.731 252.449 247.856 211.386C281.84 218.949 336.262 191.339 356.231 180.261H364.403C365.466 187.308 368.778 201.667 378.872 215.136C392.231 232.949 399.841 266.136 399.841 266.136C399.841 266.136 401.669 262.698 404.372 258.073C405.997 259.979 407.341 262.026 408.325 264.136C409.653 267.011 410.372 269.995 410.372 273.12C410.372 274.604 410.2 276.136 409.841 277.729C408.591 283.292 406.997 287.917 405.216 291.729C402.529 297.45 399.435 301.388 396.2 304.294Z" fill="white"/>
<path d="M298.044 147.138H316.357V125.388H338.091V107.091H316.357V85.325H298.044V107.091H276.294V125.388H298.044V147.138Z" fill="white"/>
</g>
<defs>
<clipPath id="clip0_262_8">
<rect width="614.4" height="614.4" fill="white"/>
</clipPath>
</defs>
</svg>
