<svg width="256" height="256" viewBox="0 0 256 256" fill="none" xmlns="http://www.w3.org/2000/svg">
<g clip-path="url(#clip0_262_82)">
<path d="M128 256C198.692 256 256 198.692 256 128C256 57.3076 198.692 0 128 0C57.3076 0 0 57.3076 0 128C0 198.692 57.3076 256 128 256Z" fill="#00AAAC"/>
<path d="M168.315 229.594L40.718 193.713C38.0976 192.907 36.6865 190.287 37.2913 187.666L81.6377 29.6315C82.444 27.011 85.0645 25.6 87.685 26.2047L215.08 62.085C217.701 62.8913 219.112 65.5118 218.507 68.1323L174.161 226.167C173.556 228.787 170.734 230.198 168.315 229.594Z" fill="#E6E9EE"/>
<path d="M194.117 214.879H61.8837C59.2632 214.879 57.0459 212.661 57.0459 210.041V45.959C57.0459 43.3385 59.2632 41.1212 61.8837 41.1212H194.318C196.939 41.1212 199.156 43.3385 199.156 45.959V210.041C198.955 212.661 196.939 214.879 194.117 214.879Z" fill="white"/>
<path d="M66.7212 67.5275C66.7212 66.7212 67.3259 65.9149 68.3338 65.9149C70.3495 65.9149 70.5511 63.8992 70.5511 63.6976V52.2078C70.5511 51.4015 71.1558 50.5952 72.1637 50.5952C72.97 50.5952 73.7763 51.1999 73.7763 52.2078V63.6976C73.7763 63.8992 73.7763 65.1086 73.1716 66.3181C72.3653 68.1322 70.5511 69.1401 68.5354 69.1401C67.3259 69.1401 66.7212 68.3338 66.7212 67.5275Z" fill="#00AAAC"/>
<path d="M75.792 59.8677C75.792 54.8283 79.8235 50.5952 84.6613 50.5952C89.4991 50.5952 93.5306 54.6267 93.5306 59.8677C93.5306 64.907 89.4991 69.1401 84.6613 69.1401C79.6219 69.1401 75.792 64.907 75.792 59.8677ZM78.8156 59.8677C78.8156 63.2944 81.4361 65.9149 84.4597 65.9149C87.6849 65.9149 90.3054 63.0929 90.3054 59.8677C90.3054 56.4409 87.6849 53.8204 84.4597 53.8204C81.4361 53.8204 78.8156 56.4409 78.8156 59.8677Z" fill="#00AAAC"/>
<path d="M107.842 63.2944C107.842 66.9228 105.02 69.1401 102.4 69.1401H96.9573C96.151 69.1401 95.3447 68.5354 95.3447 67.5275V52.2078C95.3447 51.4015 95.9494 50.5952 96.9573 50.5952H101.19C101.392 50.5952 102.4 50.5952 103.609 51.1999C105.222 52.0062 106.23 53.6188 106.23 55.6346C106.23 56.6425 106.028 57.6503 105.423 58.4566C107.036 59.6661 107.842 61.2787 107.842 63.2944ZM98.5699 57.6503H100.787C101.19 57.6503 103.005 57.6503 103.005 55.6346C103.005 53.8204 101.795 53.6188 101.392 53.6188C101.19 53.6188 101.19 53.6188 101.19 53.6188H98.5699V57.6503ZM104.819 63.2944C104.819 62.2866 104.214 60.674 102.4 60.674H98.7715V66.1165H102.4C102.4 66.1165 103.206 66.1165 103.811 65.7133C104.617 65.1086 104.819 64.1007 104.819 63.2944Z" fill="#00AAAC"/>
<path d="M123.162 80.0251H64.3022V84.4598H123.162V80.0251Z" fill="#E6E9EE"/>
<path d="M191.698 80.0251H132.838V84.4598H191.698V80.0251Z" fill="#E6E9EE"/>
<path d="M123.162 93.1276H64.3022V97.5622H123.162V93.1276Z" fill="#E6E9EE"/>
<path d="M191.698 93.1276H132.838V97.5622H191.698V93.1276Z" fill="#E6E9EE"/>
<path d="M123.162 106.431H64.3022V110.866H123.162V106.431Z" fill="#E6E9EE"/>
<path d="M191.698 106.431H132.838V110.866H191.698V106.431Z" fill="#E6E9EE"/>
<path d="M123.162 119.735H64.3022V124.17H123.162V119.735Z" fill="#E6E9EE"/>
<path d="M191.698 119.735H132.838V124.17H191.698V119.735Z" fill="#E6E9EE"/>
<path d="M123.162 133.039H64.3022V137.474H123.162V133.039Z" fill="#E6E9EE"/>
<path d="M191.698 133.039H132.838V137.474H191.698V133.039Z" fill="#E6E9EE"/>
<path d="M123.162 146.343H64.3022V150.778H123.162V146.343Z" fill="#E6E9EE"/>
<path d="M191.698 146.343H132.838V150.778H191.698V146.343Z" fill="#E6E9EE"/>
<path d="M123.162 159.647H64.3022V164.082H123.162V159.647Z" fill="#E6E9EE"/>
<path d="M191.698 159.647H132.838V164.082H191.698V159.647Z" fill="#E6E9EE"/>
<path d="M123.162 172.951H64.3022V177.386H123.162V172.951Z" fill="#E6E9EE"/>
<path d="M191.698 172.951H132.838V177.386H191.698V172.951Z" fill="#E6E9EE"/>
<path d="M123.162 186.255H64.3022V190.69H123.162V186.255Z" fill="#E6E9EE"/>
<path d="M191.698 186.255H132.838V190.69H191.698V186.255Z" fill="#E6E9EE"/>
<path d="M123.162 199.559H64.3022V203.994H123.162V199.559Z" fill="#E6E9EE"/>
<path d="M191.698 199.559H132.838V203.994H191.698V199.559Z" fill="#E6E9EE"/>
</g>
<defs>
<clipPath id="clip0_262_82">
<rect width="256" height="256" fill="white"/>
</clipPath>
</defs>
</svg>
